<?xml version="1.0" encoding="UTF-8" standalone="no"?>
<svg
   id="Layer_1"
   data-name="Layer 1"
   viewBox="0 0 194.25619 159.08912"
   version="1.1"
   sodipodi:docname="icon-longhorn-dark.svg"
   inkscape:version="1.3.2 (091e20ef0f, 2023-11-25)"
   xmlns:inkscape="http://www.inkscape.org/namespaces/inkscape"
   xmlns:sodipodi="http://sodipodi.sourceforge.net/DTD/sodipodi-0.dtd"
   xmlns="http://www.w3.org/2000/svg"
   xmlns:svg="http://www.w3.org/2000/svg"
   xmlns:rdf="http://www.w3.org/1999/02/22-rdf-syntax-ns#"
   xmlns:cc="http://creativecommons.org/ns#"
   xmlns:dc="http://purl.org/dc/elements/1.1/">
  <sodipodi:namedview
     id="namedview2"
     pagecolor="#ffffff"
     bordercolor="#000000"
     borderopacity="0.25"
     inkscape:showpageshadow="2"
     inkscape:pageopacity="0.0"
     inkscape:pagecheckerboard="0"
     inkscape:deskcolor="#d1d1d1"
     inkscape:zoom="5.9589239"
     inkscape:cx="97.081287"
     inkscape:cy="72.831942"
     inkscape:window-width="1920"
     inkscape:window-height="1147"
     inkscape:window-x="0"
     inkscape:window-y="960"
     inkscape:window-maximized="1"
     inkscape:current-layer="Layer_1" />
  <defs
     id="defs1">
    <style
       id="style1">.cls-1{fill:#5f224a;}</style>
  </defs>
  <title
     id="title1">icon</title>
  <path
     class="cls-1"
     d="M97.1281,80.6269a10.009,10.009,0,0,1-1.958-.19336l-5.28394-1.05493,4.54859,27.98315a9.92429,9.92429,0,0,1,.12988,1.60449h5.126a9.9997,9.9997,0,0,1,.16308-1.79736l5.09815-27.90643L99.0861,80.43354A10.00892,10.00892,0,0,1,97.1281,80.6269Z"
     id="path1" />
  <path
     class="cls-1"
     d="M173.6956,0H20.56071A20.62105,20.62105,0,0,0,0,20.56067V138.52845a20.62106,20.62106,0,0,0,20.56067,20.56067H173.6956a20.621,20.621,0,0,0,20.56055-20.56067V20.56067A20.621,20.621,0,0,0,173.6956,0Zm3.455,41.581-2.502,17a10.0006,10.0006,0,0,1-7.93554,8.35058L126.04545,75.051c-.007.04071-.00854.08106-.016.12177l-6.36621,34.85058A20.0265,20.0265,0,0,1,99.6906,128.96625h-5.126a20.02587,20.02587,0,0,1-19.97852-19.0581L68.94475,75.19758l-41.40162-8.266A10.0006,10.0006,0,0,1,19.60759,58.581l-2.502-17a10.00013,10.00013,0,0,1,19.78711-2.91211l1.47559,10.0293L97.1281,60.42963l58.75976-11.73144,1.47559-10.0293A10.00013,10.00013,0,0,1,177.15056,41.581Z"
     id="path2" />
  <path
     style="fill:#5f224a;fill-opacity:1;stroke:#1a1a1a;stroke-width:0.183936"
     d="m 93.724976,128.86556 c -5.550086,-0.43068 -9.950434,-2.4609 -13.559178,-6.25588 -2.934553,-3.086 -4.789194,-6.9564 -5.317166,-11.09626 -0.32255,-2.52914 -5.766406,-36.159832 -5.874484,-36.291001 -0.05744,-0.06972 -9.679189,-2.042842 -21.381659,-4.384726 -20.509165,-4.10427 -21.32359,-4.281364 -22.561904,-4.906009 -2.236728,-1.128277 -4.134678,-3.3523 -4.956278,-5.807775 -0.359725,-1.075095 -2.957754,-18.760374 -2.954642,-20.112812 0.01003,-4.360545 3.204712,-8.368834 7.559244,-9.484414 1.514218,-0.387924 4.230024,-0.256931 5.611795,0.270678 3.003274,1.146755 5.364163,3.641446 6.190742,6.541595 0.144684,0.507642 0.609036,3.262272 1.031894,6.121399 0.42286,2.859128 0.803184,5.232762 0.845165,5.274745 0.04198,0.04198 13.271782,2.709823 29.399556,5.928536 l 29.323226,5.852206 29.199903,-5.808602 c 16.05995,-3.194733 29.31318,-5.868786 29.45163,-5.942343 0.18765,-0.0997 0.4523,-1.496131 1.03974,-5.486163 0.43342,-2.943833 0.93879,-5.79465 1.12306,-6.33515 1.3529,-3.968458 5.10784,-6.65288 9.30596,-6.65288 1.84004,0 3.12059,0.303207 4.62967,1.096206 2.24943,1.182042 3.96657,3.206284 4.76977,5.622814 0.77902,2.343788 0.76976,2.506121 -0.72224,12.663674 -0.74565,5.07642 -1.47463,9.645198 -1.61995,10.15284 -0.73212,2.557457 -2.58971,4.811422 -4.99992,6.06682 -1.35875,0.707729 -1.37058,0.710335 -22.32568,4.914295 l -20.96621,4.206191 -0.9656,5.286189 c -2.2269,12.191107 -5.51141,30.555017 -5.68784,31.801047 -0.10454,0.73839 -0.45259,2.13545 -0.77344,3.10458 -2.30324,6.95712 -8.02889,11.92816 -15.3671,13.34182 -1.36028,0.26205 -7.505445,0.46913 -9.448064,0.31838 z m 6.125267,-20.54034 c 0,-0.36903 1.169617,-7.06577 2.599157,-14.881627 1.42954,-7.815861 2.58117,-14.228332 2.55919,-14.249939 -0.022,-0.0216 -1.50781,0.256184 -3.30183,0.617306 -4.117529,0.828831 -5.034527,0.83601 -8.894147,0.06963 -1.609381,-0.319565 -2.945597,-0.561578 -2.969368,-0.537807 -0.02377,0.02377 0.969767,6.27129 2.207863,13.883374 1.238095,7.612083 2.300877,14.274373 2.361737,14.805093 l 0.110653,0.96494 h 2.663373 2.663372 z"
     id="path3" />
  <path
     style="fill:#55d400;fill-opacity:1;stroke:#33d17a;stroke-width:0.183936;stroke-opacity:1"
     d="M 17.452816,158.74981 C 13.122536,158.06834 8.8153181,155.79494 5.7594679,152.57793 3.1187787,149.79797 1.3478944,146.39768 0.45432025,142.39148 L 0.09872709,140.79723 0.04317301,81.306626 C 0.00752404,43.131596 0.04713366,21.004284 0.15372128,19.55051 0.24507757,18.304479 0.43431857,16.79414 0.57425682,16.194199 2.5227555,7.8406344 9.2598126,1.5782469 17.647779,0.32361903 19.047635,0.11423576 30.019294,0.08787941 97.947512,0.13072137 c 73.626238,0.0464356 78.751878,0.0680794 79.823548,0.33706554 4.25157,1.06712949 7.57813,2.88544809 10.35015,5.65748009 2.80709,2.807078 4.773,6.430818 5.64458,10.404563 0.30212,1.377415 0.31288,3.539919 0.31288,62.930825 0,66.888975 0.067,62.209875 -0.93489,65.303605 -2.2625,6.98645 -7.76833,11.94939 -15.37272,13.85691 -1.07191,0.26888 -6.19416,0.28937 -80.018511,0.32019 -65.155424,0.0272 -79.121391,-0.006 -80.299733,-0.19155 z m 85.418104,-29.97639 c 1.68068,-0.23352 4.12585,-1.02855 5.87355,-1.90974 4.68785,-2.3636 8.30209,-6.53215 9.96255,-11.4905 0.47119,-1.40704 0.48936,-1.49977 2.10387,-10.74019 0.637,-3.6458 2.08869,-11.767085 3.22599,-18.047313 l 2.06781,-11.418594 20.96308,-4.216424 c 19.6016,-3.942579 21.04334,-4.256082 22.19866,-4.827081 2.16738,-1.071173 4.09343,-3.19183 4.93514,-5.433791 0.23571,-0.627847 0.80333,-3.976084 1.68264,-9.925588 1.60646,-10.869622 1.58288,-10.639535 1.26866,-12.383946 -0.71774,-3.984701 -3.54075,-7.00752 -7.48818,-8.018172 -1.54506,-0.395582 -4.40665,-0.263885 -5.79282,0.266598 -2.86698,1.097178 -5.04456,3.272982 -6.10067,6.095697 -0.18626,0.497819 -0.64492,2.979756 -1.02866,5.566375 -0.78246,5.274126 -0.97622,6.243081 -1.27104,6.356215 -0.11395,0.04373 -13.29836,2.693424 -29.29869,5.888223 l -29.091523,5.808723 -29.24037,-5.851201 c -16.082203,-3.21816 -29.273591,-5.884423 -29.314196,-5.925028 -0.0406,-0.0406 -0.450851,-2.566252 -0.911656,-5.612548 -0.909067,-6.009657 -1.085782,-6.657796 -2.322393,-8.517926 -1.311575,-1.972891 -3.406692,-3.429448 -5.83435,-4.056128 -1.29377,-0.333976 -3.706666,-0.330212 -5.016939,0.0078 -4.283535,1.105114 -7.492014,5.194032 -7.492014,9.5479 0,1.614612 2.601304,19.199423 3.033838,20.508745 0.966814,2.926636 3.633982,5.446304 6.699463,6.328965 0.507642,0.146169 9.192096,1.922352 19.298786,3.947075 25.317102,5.071899 22.814507,4.531627 22.91183,4.946313 0.242062,1.031404 5.253999,32.150001 5.703078,35.409821 0.448434,3.25513 1.346823,5.91521 2.805074,8.30566 3.288577,5.39083 9.011104,8.96831 15.316645,9.57532 1.833858,0.17654 8.412887,0.0565 10.152837,-0.18529 z"
     id="path4" />
  <path
     style="fill:#e5ff80;fill-opacity:1;stroke:#1a1a1a;stroke-width:0.183936"
     d="m 94.424688,106.85654 c -0.161273,-1.08451 -1.22435,-7.673364 -2.362391,-14.641904 -1.138041,-6.96854 -2.060188,-12.677416 -2.049215,-12.686391 0.01097,-0.009 1.265982,0.231668 2.788908,0.534764 3.704961,0.737368 4.942035,0.734909 8.72641,-0.01735 1.61522,-0.321073 3.01854,-0.584047 3.11849,-0.584388 0.11132,-3.8e-4 -0.81415,5.444062 -2.38895,14.053931 -1.41387,7.730008 -2.571759,14.337748 -2.573091,14.683868 l -0.0024,0.6293 h -2.482256 -2.482257 z"
     id="path5" />
  <path
     style="fill:#55d400;fill-opacity:1;stroke:#33d17a;stroke-width:0.183936;stroke-opacity:1"
     d="m 25.17233,158.66694 c -8.289038,-0.0981 -8.309962,-0.0992 -9.747843,-0.52785 -3.456621,-1.03046 -6.2066281,-2.59508 -8.6887089,-4.94343 -1.8735412,-1.77261 -3.2100543,-3.5529 -4.2684796,-5.68581 C 1.6995995,145.96281 0.877157,143.59408 0.48622227,141.80413 0.30721822,140.98453 0.26495537,129.48152 0.25901777,79.964102 0.25224626,23.492297 0.27214875,19.010659 0.5366239,17.452816 1.9625179,9.0538456 8.1035849,2.6376403 16.613738,0.65539833 17.79521,0.38020193 21.240996,0.35860755 72.831942,0.30308479 c 30.227768,-0.0325315 66.173858,0.007257 79.880198,0.0884198 l 24.9206,0.14756796 1.67816,0.54073985 c 5.67057,1.8271866 9.94731,5.434991 12.5457,10.5833676 0.80988,1.604672 1.60684,4.079778 1.80533,5.606792 0.20732,1.594953 0.20911,120.405508 0.002,123.527258 -0.12466,1.87779 -0.25411,2.63577 -0.64484,3.77585 -2.26336,6.60432 -6.79013,11.06917 -13.56159,13.3761 l -1.82461,0.62161 -28.44473,0.11273 c -33.71649,0.13363 -112.20685,0.12314 -124.01568,-0.0166 z m 77.32414,-29.70577 c 7.08409,-0.88827 13.29797,-5.79646 16.03421,-12.665 0.69016,-1.73247 0.72302,-1.90087 4.55154,-23.326364 1.43487,-8.029973 2.7337,-15.289704 2.88628,-16.132732 l 0.27742,-1.532781 3.54176,-0.703975 c 13.17543,-2.618801 34.65879,-7.004429 36.70302,-7.492577 2.95231,-0.704999 4.027,-1.27653 5.68767,-3.024775 1.86144,-1.959617 2.21157,-2.864196 3.01168,-7.780854 1.27676,-7.8456 2.22698,-14.822737 2.22838,-16.362015 0.004,-4.139999 -2.5364,-7.790512 -6.49121,-9.328823 -1.60794,-0.625446 -3.7099,-0.81207 -5.58469,-0.495845 -3.77346,0.636477 -7.14144,3.86117 -7.98268,7.643066 -0.14372,0.64609 -0.57415,3.166721 -0.95651,5.601404 -0.38236,2.434681 -0.75659,4.588129 -0.8316,4.785438 -0.12588,0.331095 -2.39153,0.80827 -29.39733,6.191465 L 96.913471,60.169526 67.846225,54.326918 C 51.859239,51.113484 38.746783,48.449786 38.707432,48.407592 c -0.03935,-0.04219 -0.453347,-2.463688 -0.91999,-5.381095 -0.466645,-2.917408 -1.00694,-5.774863 -1.200658,-6.349904 -1.568614,-4.656362 -6.441514,-7.421628 -11.556698,-6.558177 -3.864662,0.65236 -7.206302,3.99179 -8.042876,8.037555 -0.328897,1.590585 -0.26825,2.291201 0.901013,10.408645 1.31629,9.138168 1.811945,11.819149 2.409504,13.032967 1.346891,2.735923 3.812566,4.69331 6.857725,5.444035 0.709104,0.174815 9.935976,2.059957 20.50416,4.189204 10.568183,2.129247 19.629259,3.966243 20.135724,4.082214 l 0.920846,0.210855 0.882487,5.366647 c 1.047192,6.368284 3.645409,22.569982 4.493761,28.021742 0.669743,4.30398 1.032384,5.88737 1.778596,7.76585 2.443824,6.15197 8.420455,10.98431 15.084994,12.19682 1.543882,0.28088 9.51312,0.34042 11.54045,0.0862 z"
     id="path6" />
  <path
     style="fill:#55d400;fill-opacity:1;stroke:#33d17a;stroke-width:0.183936;stroke-opacity:1"
     d="m 94.186006,104.2554 c -0.389842,-2.42284 -1.439909,-8.879319 -2.333484,-14.347739 -0.893574,-5.46842 -1.582369,-9.984893 -1.530655,-10.036607 0.05171,-0.05171 1.102879,0.111693 2.335922,0.363126 3.129007,0.638045 5.797976,0.621475 9.248191,-0.05742 2.45704,-0.483466 2.47528,-0.484498 2.47513,-0.140088 -2.1e-4,0.450797 -0.92958,5.83548 -2.99977,17.380243 -0.91857,5.122575 -1.723065,9.747985 -1.787765,10.278705 l -0.117636,0.96494 h -2.290565 -2.290565 z"
     id="path7" />
  <path
     style="fill:#33d17a;fill-opacity:1;stroke:#33d17a;stroke-width:0.183936;stroke-opacity:0.99999964"
     d="M 36.164248,158.49716 C 15.098635,158.38615 16.614924,158.45973 13.835721,157.41364 9.8792074,155.92441 6.0504904,152.87322 3.7991489,149.41528 2.6785871,147.69415 2.0937888,146.4328 1.2286425,143.87092 L 0.58735437,141.97194 0.5402852,80.970995 C 0.50993334,41.635442 0.55216859,19.374027 0.65920246,18.291893 1.1821282,13.005012 4.1537783,7.8787947 8.6747911,4.4646767 10.141341,3.3571874 13.41945,1.7300456 15.355121,1.1487887 L 16.865461,0.69525321 35.157354,0.57643359 C 60.712908,0.41043102 123.34274,0.41217636 152.96386,0.57971656 l 24.8367,0.14047903 1.51034,0.53795891 c 3.69204,1.3150438 6.10333,2.7867624 8.48997,5.1817983 2.45586,2.4645078 3.81983,4.6678182 4.98177,8.0473132 l 0.61573,1.790841 0.1113,6.293082 c 0.15723,8.889323 0.14481,104.495051 -0.0147,113.107671 -0.1459,7.87793 -0.13723,7.8094 -1.34077,10.60104 -1.04874,2.43259 -2.25659,4.21058 -4.20082,6.18373 -2.43764,2.47392 -4.74708,3.91488 -8.53772,5.32708 l -1.61512,0.60172 -34.82172,0.12196 c -39.4811,0.13828 -78.4975,0.13198 -106.814592,-0.0172 z m 66.147112,-29.37468 c 6.46526,-0.72092 12.39733,-4.89589 15.48237,-10.89644 1.49081,-2.89969 1.28298,-1.92949 5.71395,-26.674112 1.57756,-8.809808 2.8915,-16.041048 2.91987,-16.069425 0.0284,-0.02838 4.91566,-1.02835 10.86063,-2.222163 23.50922,-4.720906 30.02934,-6.096631 31.47717,-6.641592 1.41125,-0.531192 2.26827,-1.141092 3.6262,-2.580565 1.40748,-1.492003 1.89307,-2.444967 2.39294,-4.696061 0.46423,-2.090614 1.7402,-10.262205 2.34252,-15.001928 0.65412,-5.14729 0.57027,-6.343745 -0.61902,-8.834262 -1.65327,-3.46213 -5.35445,-5.727973 -9.33653,-5.715761 -4.2916,0.01316 -8.49963,3.091947 -9.74412,7.129247 -0.1707,0.553791 -0.6709,3.216844 -1.11156,5.917897 -0.44066,2.701051 -0.88425,5.023519 -0.98576,5.161041 -0.26907,0.364537 -3.27874,0.996982 -32.32658,6.793033 L 96.902773,59.999375 77.777152,56.148357 C 50.442747,50.644468 39.391607,48.40823 39.08504,48.318868 c -0.209521,-0.06107 -0.403714,-0.907143 -0.893485,-3.89277 -1.33585,-8.143305 -1.684408,-9.251722 -3.539411,-11.255346 -1.222202,-1.320124 -2.502324,-2.154019 -4.27012,-2.781636 -1.313829,-0.466447 -1.609425,-0.508263 -3.531539,-0.499585 -1.823344,0.0082 -2.245658,0.06521 -3.229031,0.435701 -3.379783,1.273336 -5.761719,3.932059 -6.689417,7.466746 -0.452185,1.722898 -0.391643,2.506867 0.870538,11.27279 1.723528,11.969985 2.008165,12.971921 4.350643,15.314398 0.999219,0.99922 1.595536,1.433462 2.696428,1.963556 1.637551,0.788501 0.631987,0.568146 26.585815,5.825902 9.414452,1.90719 17.125619,3.478546 17.13593,3.491901 0.02823,0.03656 2.039821,12.512994 4.103073,25.448335 1.913365,11.99565 2.274974,13.79486 3.225082,16.04673 1.660303,3.93512 5.277708,7.76804 9.284161,9.83729 2.540476,1.31211 4.604073,1.96432 6.779206,2.14262 2.307203,0.18913 8.606637,0.1812 10.348447,-0.013 z"
     id="path8" />
  <metadata
     id="metadata8">
    <rdf:RDF>
      <cc:Work
         rdf:about="">
        <dc:title>icon</dc:title>
      </cc:Work>
    </rdf:RDF>
  </metadata>
  <path
     style="fill:#33d17a;fill-opacity:1;stroke:#1a1a1a;stroke-width:0.183936"
     d="m 94.990191,108.12014 c -0.07892,-0.35023 -3.270221,-20.09733 -4.124726,-25.522912 -0.200742,-1.274588 -0.320551,-2.361866 -0.266242,-2.416175 0.05431,-0.05431 1.124869,0.07249 2.379024,0.281785 2.865736,0.478227 6.352266,0.420821 9.197833,-0.151442 1.00231,-0.201572 1.86488,-0.324 1.91681,-0.272062 0.13761,0.137609 -0.10473,1.614875 -2.39648,14.608628 -1.13953,6.460898 -2.13472,12.200188 -2.211539,12.753978 l -0.139672,1.0069 -2.134402,0.0469 c -2.102012,0.0462 -2.13571,0.0411 -2.220606,-0.33563 z"
     id="path9" />
</svg>
